<?xml version="1.0" encoding="utf-8"?>
<!-- Generator: Adobe Illustrator 23.0.3, SVG Export Plug-In . SVG Version: 6.00 Build 0)  -->
<svg version="1.1" id="Layer_1" xmlns="http://www.w3.org/2000/svg" xmlns:xlink="http://www.w3.org/1999/xlink" x="0px" y="0px"
	 viewBox="0 0 142.2 43.7" style="enable-background:new 0 0 142.2 43.7;" xml:space="preserve">
<path d="M12.7,5.7h4.8l10.7,29.6h-6.4l-2-6.1H8.3l-1.9,6.1H0L9.8,7.7C10.3,6.4,11.3,5.7,12.7,5.7z M14.1,11.7L10,24.2h8.3L14.1,11.7
	z"/>
<path d="M42.8,40.8v-8.5c-0.7,1.2-1.7,2.1-2.8,2.7c-1.1,0.5-2.4,0.8-3.8,0.8c-2.8,0-5-1.1-6.6-3.3c-1.7-2.1-2.5-5-2.5-8.8
	c0-3.6,0.8-6.4,2.5-8.6c0.9-1,2-1.8,3.4-2.4c1.4-0.5,2.9-0.8,4.4-0.8c2.8,0,5.3,0.7,7.6,2.2c2.3,1.5,3.5,4.2,3.5,8.2v21.4h-2.9
	c-0.8,0-1.5-0.3-2.1-0.9C43.1,42.3,42.8,41.6,42.8,40.8z M33.1,24c0,2.1,0.4,3.7,1.3,4.9s2,1.8,3.5,1.8c1.6,0,2.8-0.6,3.7-1.8
	c0.9-1.1,1.3-2.7,1.3-4.9c0-2.2-0.4-4-1.2-5.2C40.8,17.6,39.6,17,38,17c-1.6,0-2.8,0.6-3.7,1.8S33.1,21.7,33.1,24z"/>
<path d="M69.7,12.4v13.4c0,4.1-1.1,6.7-3.2,8c-2.1,1.3-4.4,1.9-7,1.9c-2.5-0.1-4.7-0.8-6.7-2.1c-2-1.3-3.1-3.9-3.1-7.8V12.4h6V27
	c0,1.4,0.4,2.4,1.2,3c0.8,0.6,1.7,0.9,2.8,0.9s2-0.3,2.8-0.9c0.8-0.6,1.2-1.6,1.2-3V15.4c0-0.8,0.3-1.5,0.8-2.1
	c0.5-0.6,1.2-0.9,2.1-0.9H69.7z"/>
<path d="M71.3,5.7h3.1c0.8,0,1.5,0.3,2.1,0.9c0.6,0.6,0.9,1.3,0.9,2.1v1.8h-6V5.7z M71.3,12.4h3.1c0.8,0,1.5,0.3,2.1,0.9
	c0.6,0.6,0.9,1.3,0.9,2.1v19.9h-6V12.4z"/>
<path d="M78.1,27.7H84c0.1,1.1,0.5,2,1.3,2.6c0.9,0.6,2,0.9,3.4,0.9c1,0,1.9-0.2,2.7-0.6c0.7-0.4,1-0.9,1-1.6c0-1-1.2-1.8-3.6-2.3
	c-1-0.2-1.8-0.3-2.3-0.5c-3-0.7-5.1-1.6-6.1-2.7c-1.1-1-1.7-2.4-1.7-4.1c0-2.2,0.8-4,2.5-5.4c1.7-1.3,4-2,6.7-2c3,0,5.4,0.7,7.1,2
	c1.7,1.4,2.5,3.3,2.7,5.6h-3.7c-1.1,0-1.9-0.5-2.5-1.5c-0.2-0.2-0.5-0.5-0.7-0.7c-0.7-0.5-1.6-0.8-2.8-0.8c-1.1,0-2,0.2-2.6,0.5
	c-0.5,0.3-0.8,0.9-0.8,1.5c0,0.9,1.5,1.7,4.5,2.3c0.3,0.1,0.6,0.2,0.9,0.3c0.3,0.1,0.5,0.1,0.7,0.1c2.9,0.7,5,1.6,6.1,2.6
	c1.1,1,1.6,2.4,1.6,4.1c0,2.5-0.9,4.5-2.8,5.8c-1.7,1.3-4.3,1.9-7.7,1.9c-3.3,0-5.7-0.7-7.3-2c-1.7-1.3-2.5-3.2-2.5-5.8V27.7z"/>
<path d="M99.9,5.7h3.1c0.8,0,1.5,0.3,2.1,0.9c0.6,0.6,0.9,1.3,0.9,2.1v1.8h-6V5.7z M99.9,12.4h3.1c0.8,0,1.5,0.3,2.1,0.9
	c0.6,0.6,0.9,1.3,0.9,2.1v19.9h-6V12.4z"/>
<path d="M116.5,35.3c-1.9,0.1-3.9,0.1-6.1-0.1c-2.2-0.2-3.3-1.6-3.3-4.2V5.7h3.1c0.7,0,1.4,0.3,2,0.9c0.6,0.6,0.9,1.3,0.9,2.1v3.9
	h3.5v1.2c0,0.9-0.3,1.6-0.9,2.1c-0.6,0.5-1.3,0.8-2.1,0.8H113v12.7c0,1,0.6,1.5,1.7,1.5h1.8V35.3z"/>
<path d="M120.1,33.2c-1.2-1-2.1-2.4-2.6-4.2c-0.5-1.7-0.8-3.6-0.8-5.5c0-1.5,0.2-3.1,0.6-4.6s1.1-2.8,2-3.9c1.5-1.7,3.4-2.7,5.8-3.1
	c2.3-0.3,4.5-0.1,6.4,0.6c2.2,0.9,3.8,2.3,4.8,4.5c1,1.9,1.5,4.1,1.5,6.6c0,1.8-0.2,3.4-0.6,4.7c-0.4,1.3-0.9,2.4-1.5,3.4
	c-1.4,1.9-3.1,3.1-5.2,3.5c-1.9,0.5-3.8,0.6-5.7,0.1C122.8,35,121.2,34.3,120.1,33.2z M124.2,18.1c-1.2,1.3-1.7,3.3-1.6,5.9
	c0.1,2.6,0.6,4.4,1.5,5.5c0.3,0.5,0.9,0.8,1.8,1.2c0.9,0.3,1.7,0.3,2.6,0.1c0.9-0.3,1.7-0.9,2.4-1.9s1.1-2.7,1.1-5
	c0-2.1-0.3-3.6-1-4.6c-0.7-1-1.4-1.7-2.3-2c-0.9-0.3-1.7-0.3-2.6,0S124.6,17.7,124.2,18.1z"/>
</svg>
